<?xml version="1.0" encoding="utf-8"?>
<!-- Generator: Adobe Illustrator 19.0.0, SVG Export Plug-In . SVG Version: 6.00 Build 0)  -->
<svg version="1.1" id="Layer_1" xmlns="http://www.w3.org/2000/svg" xmlns:xlink="http://www.w3.org/1999/xlink" x="0px" y="0px"
	 viewBox="0 0 841.9 1190.6" style="enable-background:new 0 0 841.9 1190.6;" xml:space="preserve">
<style type="text/css">
	.st0{fill:#66C9D6;}
	.st1{fill:#53C4C7;}
	.st2{fill:#FFFFFF;}
	.st3{fill:#60C7CB;stroke:#010101;stroke-width:0.2023;stroke-miterlimit:10;}
	.st4{fill:#010101;}
	.st5{fill:none;stroke:#A9DDE2;stroke-width:7.191096e-002;stroke-miterlimit:10;}
	.st6{fill:#E41A52;stroke:#010101;stroke-width:0.1611;stroke-miterlimit:10;}
	.st7{fill:none;stroke:#F499BA;stroke-width:6.891721e-002;stroke-miterlimit:10;}
	.st8{fill:#8081BE;stroke:#010101;stroke-width:0.167;stroke-miterlimit:10;}
	.st9{fill:none;stroke:#A0A3D2;stroke-width:7.309188e-002;stroke-miterlimit:10;}
	.st10{fill:#EF457F;stroke:#010101;stroke-width:0.2673;stroke-miterlimit:10;}
	.st11{fill:none;stroke:#F499BA;stroke-width:0.1144;stroke-miterlimit:10;}
	.st12{fill:#60C7CB;stroke:#010101;stroke-width:0.2111;stroke-miterlimit:10;}
	.st13{fill:none;stroke:#A9DDE2;stroke-width:7.503071e-002;stroke-miterlimit:10;}
	.st14{fill:#8081BE;stroke:#010101;stroke-width:0.1391;stroke-miterlimit:10;}
	.st15{fill:none;stroke:#A0A3D2;stroke-width:6.088168e-002;stroke-miterlimit:10;}
	.st16{fill:#FEEC44;}
	.st17{fill:#FFFFFF;stroke:#4C3314;stroke-width:0.2372;stroke-miterlimit:10;}
	.st18{fill:#FFFFFF;stroke:#4C3314;stroke-width:0.3152;stroke-miterlimit:10;}
	.st19{fill:#F9D98A;stroke:#4C3314;stroke-width:0.4977;stroke-miterlimit:10;}
	.st20{fill:#F9D98A;stroke:#4C3314;stroke-width:0.583;stroke-miterlimit:10;}
	.st21{fill:#FFFFFF;stroke:#66C9D6;stroke-width:0.3093;stroke-miterlimit:10;}
	.st22{fill:#F9D98A;stroke:#66C9D6;stroke-width:0.4885;stroke-miterlimit:10;}
	.st23{fill:#F9D98A;stroke:#66C9D6;stroke-width:0.5723;stroke-miterlimit:10;}
	.st24{fill:#F9D98A;stroke:#4C3314;stroke-width:0.4782;stroke-miterlimit:10;}
	.st25{fill:#F9D98A;stroke:#4C3314;stroke-width:0.5862;stroke-miterlimit:10;}
	.st26{fill:#FFFFFF;stroke:#66C9D6;stroke-width:0.2302;stroke-miterlimit:10;}
	.st27{fill:#F9D98A;stroke:#66C9D6;stroke-width:0.3635;stroke-miterlimit:10;}
	.st28{fill:#F9D98A;stroke:#66C9D6;stroke-width:0.4472;stroke-miterlimit:10;}
	.st29{fill:#F9D98A;stroke:#66C9D6;stroke-width:0.4258;stroke-miterlimit:10;}
	.st30{fill:none;stroke:#FFFFFF;stroke-width:0.7064;stroke-miterlimit:10;}
	.st31{fill:#2BBCB5;}
	.st32{fill:#1BADA2;}
	.st33{fill:#1FA3A3;}
	.st34{fill:#2191A0;}
	.st35{fill:#22869E;}
</style>
<rect id="XMLID_187_" x="226.6" y="51.8" class="st0" width="351.7" height="434.7"/>
<polygon id="XMLID_186_" class="st0" points="226.6,51.8 578.3,51.8 578.3,84.9 226.6,83.9 "/>
<rect id="XMLID_185_" x="226.6" y="106.8" class="st1" width="351.7" height="50"/>
<path id="XMLID_184_" class="st0" d="M225.6,37.7c0,0,13.9,14.7,56.8,6.1c0,0,40.7-6.1,50.4,0c0,0,35.4,8,72.7-1.7
	c0,0,121-15.5,173.2,2.5l0.1,18.3c0,0-1.8,18.2-19,18.2H241.9c0,0-16.3-3.7-16.3-20.3V37.7z"/>
<g id="XMLID_405_">
	<path id="XMLID_418_" class="st2" d="M377.7,76.5c0.2,0.1,0.4,0.2,0.6,0.4c0.2,0.2,0.2,0.4,0.2,0.7v11.5c0,0.3-0.1,0.6-0.3,0.8
		c-0.2,0.2-0.5,0.3-0.8,0.3s-0.6-0.1-0.8-0.3c-0.2-0.2-0.3-0.5-0.3-0.8v-7.5l-3.6,5.9v0l0,0l0,0l0,0c0,0,0,0.1,0,0.1l0,0
		c0,0,0,0,0,0c0,0,0,0,0,0c0,0,0,0,0,0c0,0,0,0-0.1,0l0,0c0,0,0,0-0.1,0c0,0,0,0,0,0l0,0h0c0,0,0,0-0.1,0c0,0,0,0,0,0c0,0,0,0-0.1,0
		c-0.1,0.1-0.3,0.1-0.5,0.1h0c0,0,0,0,0,0c-0.1,0-0.2,0-0.2,0c0,0,0,0,0,0c0,0,0,0,0,0c0,0-0.1,0-0.1,0c0,0,0,0,0,0c0,0-0.1,0-0.1,0
		h0l0,0l0,0c0,0,0,0-0.1,0c0,0,0,0,0,0c0,0,0,0-0.1,0c0,0,0,0,0,0c0,0,0,0,0,0c0,0,0,0,0,0c0,0,0,0,0,0c0,0,0,0,0-0.1l0,0
		c0,0,0,0,0,0v0c0,0,0,0,0,0l-3.6-5.9v7.5c0,0.3-0.1,0.6-0.3,0.8c-0.2,0.2-0.5,0.3-0.8,0.3c-0.3,0-0.6-0.1-0.8-0.3
		c-0.2-0.2-0.3-0.5-0.3-0.8V77.6c0-0.3,0.1-0.5,0.2-0.7c0.2-0.2,0.4-0.3,0.6-0.4c0.2-0.1,0.5-0.1,0.7,0c0.2,0.1,0.4,0.3,0.6,0.5
		l4.7,7.8l4.7-7.8c0.1-0.2,0.3-0.4,0.5-0.5c0.2-0.1,0.4-0.1,0.4-0.1S377.5,76.4,377.7,76.5z"/>
	<path id="XMLID_415_" class="st2" d="M382.5,90.1c-0.3-0.1-0.5-0.3-0.6-0.6c-0.1-0.3-0.1-0.6,0-0.9l1.2-2.9v0l3.5-8.5
		c0,0,0-0.1,0-0.1l0,0c0,0,0,0,0,0c0,0,0,0,0,0c0,0,0,0,0,0c0,0,0,0,0,0c0,0,0,0,0,0c0,0,0,0,0,0c0,0,0,0,0,0c0,0,0,0,0,0
		c0,0,0,0,0,0l0,0c0,0,0.1,0,0.1,0c0,0,0,0,0.1,0c0,0,0,0,0,0c0,0,0,0,0,0c0,0,0.1,0,0.1,0c0,0,0,0,0.1,0l0,0c0,0,0,0,0.1,0l0,0
		c0,0,0,0,0.1,0c0,0,0,0,0,0c0,0,0,0,0.1,0h0.1l0.1,0l0,0c0,0,0,0,0.1,0c0,0,0.1,0,0,0c0.1,0,0.1,0,0.2,0.1c0,0,0,0,0,0
		c0,0,0.1,0,0.1,0l0,0c0,0,0,0,0,0c0,0,0,0,0,0c0,0,0,0,0,0c0,0,0,0,0,0c0,0,0,0,0,0l0,0c0,0,0,0,0,0c0,0,0,0,0,0s0,0,0,0
		c0,0,0,0.1,0,0.1l3.5,8.5v0l1.2,2.9c0.1,0.3,0.1,0.6,0,0.9c-0.1,0.3-0.3,0.5-0.6,0.6c-0.1,0.1-0.3,0.1-0.4,0.1
		c-0.5,0-0.9-0.2-1-0.7l-0.9-2.2h-5.5l-0.9,2.2c-0.2,0.5-0.5,0.7-1,0.7c-0.1,0-0.2,0-0.2,0S382.6,90.2,382.5,90.1z M389.5,85
		l-1.8-4.4l-1.8,4.4H389.5z"/>
	<path id="XMLID_412_" class="st2" d="M405.6,80.5c0,0.8-0.3,1.6-0.8,2.3c-0.5,0.7-1.2,1.2-2,1.4l2.2,4.4c0.1,0.3,0.2,0.6,0,0.9
		c-0.1,0.3-0.3,0.5-0.6,0.7c-0.2,0.1-0.3,0.1-0.5,0.1c-0.5,0-0.8-0.2-1-0.6l-2.5-5.1h-1.9V89c0,0.3-0.1,0.6-0.3,0.8
		c-0.2,0.2-0.5,0.3-0.8,0.3c-0.3,0-0.6-0.1-0.8-0.3c-0.2-0.2-0.3-0.5-0.3-0.8V77.6c0-0.3,0.1-0.6,0.3-0.8c0.2-0.2,0.5-0.3,0.8-0.3h4
		c1.2,0,2.2,0.4,3,1.2C405.1,78.4,405.6,79.3,405.6,80.5z M401.4,82.2c0.5,0,1-0.2,1.4-0.5c0.4-0.3,0.6-0.7,0.6-1.2
		c0-0.5-0.2-0.9-0.6-1.2c-0.4-0.3-0.9-0.5-1.4-0.5h-2.8v3.5H401.4z"/>
	<path id="XMLID_410_" class="st2" d="M410,90.1c-0.3,0-0.6-0.1-0.8-0.3c-0.2-0.2-0.3-0.5-0.3-0.8V77.6c0-0.3,0.1-0.6,0.3-0.8
		c0.2-0.2,0.5-0.3,0.8-0.3s0.6,0.1,0.8,0.3c0.2,0.2,0.3,0.5,0.3,0.8v5l5.5-5.8c0.2-0.2,0.5-0.3,0.8-0.4c0.3,0,0.6,0.1,0.8,0.3
		c0.2,0.2,0.3,0.5,0.3,0.8c0,0.3-0.1,0.6-0.3,0.8l-4.6,4.8l4.8,5c0.2,0.2,0.3,0.5,0.3,0.8c0,0.3-0.1,0.6-0.3,0.8
		c-0.2,0.2-0.5,0.3-0.8,0.3c-0.3,0-0.6-0.1-0.8-0.3l-4.7-5l-0.9,1V89c0,0.3-0.1,0.6-0.3,0.8C410.5,90,410.3,90.1,410,90.1z"/>
	<path id="XMLID_408_" class="st2" d="M429.7,87.9c0.3,0,0.6,0.1,0.8,0.3c0.2,0.2,0.3,0.5,0.3,0.8s-0.1,0.6-0.3,0.8
		c-0.2,0.2-0.5,0.3-0.8,0.3h-6.9c-0.3,0-0.6-0.1-0.8-0.3c-0.2-0.2-0.3-0.5-0.3-0.8V77.6c0-0.3,0.1-0.6,0.3-0.8
		c0.2-0.2,0.5-0.3,0.8-0.3h0l6.9,0c0.3,0,0.6,0.1,0.8,0.3c0.2,0.2,0.3,0.5,0.3,0.8s-0.1,0.6-0.3,0.8c-0.2,0.2-0.5,0.3-0.8,0.3h0
		l-5.8,0v3.5h4.2c0.3,0,0.6,0.1,0.8,0.3c0.2,0.2,0.3,0.5,0.3,0.8c0,0.3-0.1,0.6-0.3,0.8c-0.2,0.2-0.5,0.3-0.8,0.3h-4.2v3.5H429.7z"
		/>
	<path id="XMLID_406_" class="st2" d="M436.5,78.7h-2.8c-0.3,0-0.6-0.1-0.8-0.3c-0.2-0.2-0.3-0.5-0.3-0.8s0.1-0.6,0.3-0.8
		c0.2-0.2,0.5-0.3,0.8-0.3h8c0.3,0,0.6,0.1,0.8,0.3c0.2,0.2,0.3,0.5,0.3,0.8s-0.1,0.6-0.3,0.8c-0.2,0.2-0.5,0.3-0.8,0.3h-2.9v10.4
		c0,0.3-0.1,0.6-0.3,0.8c-0.2,0.2-0.5,0.3-0.8,0.3s-0.6-0.1-0.8-0.3c-0.2-0.2-0.3-0.5-0.3-0.8V78.7z"/>
</g>
<g id="XMLID_381_">
	<path id="XMLID_175_" class="st3" d="M300.5,70.4c0,0,4.9,3.3,4.5,4.3c0,0-1.1,1.9-5.6,2.3c0,0-2.9,0.1-4.7-0.2
		c0,0-3.8-0.8-6.2-3.4c0,0,0.4-0.5,1.1-1.1c1.1-1,3.3-2.5,5.7-2.8C295.3,69.5,298.7,69.2,300.5,70.4z"/>
	<path id="XMLID_174_" class="st3" d="M301.9,71.4c0,0-3,2.7-0.7,5.4"/>
	
		<ellipse id="XMLID_173_" transform="matrix(0.9994 3.552132e-002 -3.552132e-002 0.9994 2.8145 -10.7269)" class="st4" cx="303.3" cy="73.8" rx="0.4" ry="0.6"/>
	<polygon id="XMLID_172_" class="st3" points="290.1,71.9 286.9,69 286.1,72.2 288.7,73.4 285.9,74.3 286.7,77.4 289.9,75 	"/>
	<path id="XMLID_171_" class="st5" d="M292.6,72.4c-0.4,0-0.7,0.2-0.7,0.6c0,0.3,0.3,0.6,0.7,0.6"/>
	<path id="XMLID_170_" class="st5" d="M294.7,70.9c-0.4,0-0.7,0.2-0.7,0.6c0,0.3,0.3,0.6,0.7,0.6"/>
	<path id="XMLID_169_" class="st5" d="M295.4,72.4c-0.4,0-0.7,0.2-0.7,0.6s0.3,0.6,0.7,0.6"/>
	<path id="XMLID_168_" class="st5" d="M294.8,73.9c-0.4,0-0.7,0.2-0.7,0.6c0,0.3,0.3,0.6,0.7,0.6"/>
	<path id="XMLID_167_" class="st5" d="M294.2,72.5c-0.4,0-0.7,0.2-0.7,0.6s0.3,0.6,0.7,0.6"/>
	<path id="XMLID_166_" class="st5" d="M293.5,71.1c-0.4,0-0.7,0.2-0.7,0.6s0.3,0.6,0.7,0.6"/>
	<path id="XMLID_165_" class="st5" d="M293.5,74c-0.4,0-0.7,0.2-0.7,0.6c0,0.3,0.3,0.6,0.7,0.6"/>
	<path id="XMLID_164_" class="st5" d="M298.8,73.1c-0.4,0-0.7,0.2-0.7,0.6c0,0.3,0.3,0.6,0.7,0.6"/>
	<path id="XMLID_163_" class="st5" d="M299.5,70.8c-0.4,0-0.7,0.2-0.7,0.6c0,0.3,0.3,0.6,0.7,0.6"/>
	<path id="XMLID_162_" class="st5" d="M297.9,71.6c-0.4,0-0.7,0.2-0.7,0.6c0,0.3,0.3,0.6,0.7,0.6"/>
	<path id="XMLID_161_" class="st5" d="M292.2,73.9c-0.4,0-0.7,0.2-0.7,0.6s0.3,0.6,0.7,0.6"/>
	<path id="XMLID_160_" class="st5" d="M291.9,71.3c-0.4,0-0.7,0.2-0.7,0.6c0,0.3,0.3,0.6,0.7,0.6"/>
	<path id="XMLID_159_" class="st5" d="M297.9,69.8c-0.4,0-0.7,0.2-0.7,0.6c0,0.3,0.3,0.6,0.7,0.6"/>
	<path id="XMLID_158_" class="st5" d="M296.8,70.8c-0.4,0-0.7,0.2-0.7,0.6s0.3,0.6,0.7,0.6"/>
	<path id="XMLID_157_" class="st5" d="M297.1,73.7c-0.4,0-0.7,0.2-0.7,0.6c0,0.3,0.3,0.6,0.7,0.6"/>
	<path id="XMLID_156_" class="st5" d="M296.7,75.3c-0.4,0-0.7,0.2-0.7,0.6s0.3,0.6,0.7,0.6"/>
	<path id="XMLID_155_" class="st5" d="M296.4,72.4c-0.4,0-0.7,0.2-0.7,0.6s0.3,0.6,0.7,0.6"/>
	<path id="XMLID_154_" class="st5" d="M296,74c-0.4,0-0.7,0.2-0.7,0.6s0.3,0.6,0.7,0.6"/>
	<path id="XMLID_153_" class="st5" d="M295.9,70.9c-0.4,0-0.7,0.2-0.7,0.6c0,0.3,0.3,0.6,0.7,0.6"/>
</g>
<g id="XMLID_357_">
	<path id="XMLID_152_" class="st6" d="M262.1,59.4c0,0,4,2.5,3.7,3.3c0,0-0.9,1.5-4.6,1.7c0,0-2.4,0.1-3.9-0.1c0,0-3.1-0.7-5.1-2.7
		c0,0,0.3-0.4,0.9-0.8c0.9-0.8,2.7-2,4.7-2.2C257.9,58.7,260.6,58.5,262.1,59.4z"/>
	<path id="XMLID_151_" class="st6" d="M263.2,60.2c0,0-2.4,2-0.6,4.2"/>
	
		<ellipse id="XMLID_150_" transform="matrix(0.9994 3.552132e-002 -3.552132e-002 0.9994 2.3722 -9.3528)" class="st4" cx="264.4" cy="62.1" rx="0.3" ry="0.4"/>
	<polygon id="XMLID_149_" class="st6" points="253.6,60.6 250.9,58.3 250.3,60.8 252.4,61.7 250.1,62.4 250.8,64.8 253.4,62.9 	"/>
	<path id="XMLID_148_" class="st7" d="M255.6,60.9c-0.3,0-0.6,0.2-0.6,0.4s0.2,0.5,0.6,0.5"/>
	<path id="XMLID_147_" class="st7" d="M257.4,59.8c-0.3,0-0.6,0.2-0.6,0.4c0,0.3,0.2,0.5,0.6,0.5"/>
	<path id="XMLID_146_" class="st7" d="M257.9,60.9c-0.3,0-0.6,0.2-0.6,0.4s0.2,0.5,0.6,0.5"/>
	<path id="XMLID_145_" class="st7" d="M257.5,62.1c-0.3,0-0.6,0.2-0.6,0.4s0.2,0.5,0.6,0.5"/>
	<path id="XMLID_144_" class="st7" d="M256.9,61.1c-0.3,0-0.6,0.2-0.6,0.4c0,0.3,0.2,0.5,0.6,0.5"/>
	<path id="XMLID_143_" class="st7" d="M256.4,59.9c-0.3,0-0.6,0.2-0.6,0.4c0,0.3,0.2,0.5,0.6,0.5"/>
	<path id="XMLID_142_" class="st7" d="M256.4,62.2c-0.3,0-0.6,0.2-0.6,0.4c0,0.3,0.2,0.5,0.6,0.5"/>
	<path id="XMLID_141_" class="st7" d="M260.7,61.5c-0.3,0-0.6,0.2-0.6,0.4c0,0.3,0.2,0.5,0.6,0.5"/>
	<path id="XMLID_140_" class="st7" d="M261.3,59.7c-0.3,0-0.6,0.2-0.6,0.4c0,0.3,0.2,0.5,0.6,0.5"/>
	<path id="XMLID_139_" class="st7" d="M260,60.3c-0.3,0-0.6,0.2-0.6,0.4c0,0.3,0.2,0.5,0.6,0.5"/>
	<path id="XMLID_138_" class="st7" d="M255.3,62.1c-0.3,0-0.6,0.2-0.6,0.4c0,0.3,0.2,0.5,0.6,0.5"/>
	<path id="XMLID_137_" class="st7" d="M255.1,60.1c-0.3,0-0.6,0.2-0.6,0.4s0.2,0.5,0.6,0.5"/>
	<path id="XMLID_136_" class="st7" d="M259.9,59c-0.3,0-0.6,0.2-0.6,0.4c0,0.3,0.2,0.5,0.6,0.5"/>
	<path id="XMLID_135_" class="st7" d="M259.1,59.8c-0.3,0-0.6,0.2-0.6,0.4c0,0.3,0.2,0.5,0.6,0.5"/>
	<path id="XMLID_134_" class="st7" d="M259.3,62c-0.3,0-0.6,0.2-0.6,0.4c0,0.3,0.2,0.5,0.6,0.5"/>
	<path id="XMLID_133_" class="st7" d="M259,63.2c-0.3,0-0.6,0.2-0.6,0.4c0,0.3,0.2,0.5,0.6,0.5"/>
	<path id="XMLID_132_" class="st7" d="M258.8,61c-0.3,0-0.6,0.2-0.6,0.4s0.2,0.5,0.6,0.5"/>
	<path id="XMLID_131_" class="st7" d="M258.4,62.2c-0.3,0-0.6,0.2-0.6,0.4s0.2,0.5,0.6,0.5"/>
	<path id="XMLID_130_" class="st7" d="M258.3,59.8c-0.3,0-0.6,0.2-0.6,0.4s0.2,0.5,0.6,0.5"/>
</g>
<g id="XMLID_333_">
	<path id="XMLID_129_" class="st8" d="M331.1,51.8c0,0,4.2,2.6,3.9,3.5c0,0-0.9,1.5-4.7,1.8c0,0-2.4,0.1-4-0.1c0,0-3.2-0.7-5.3-2.8
		c0,0,0.3-0.4,0.9-0.9c1-0.8,2.8-2,4.9-2.3C326.7,51,329.6,50.8,331.1,51.8z"/>
	<path id="XMLID_128_" class="st8" d="M332.3,52.6c0,0-2.5,2.1-0.6,4.3"/>
	
		<ellipse id="XMLID_127_" transform="matrix(0.9994 3.552132e-002 -3.552132e-002 0.9994 2.147 -11.8119)" class="st4" cx="333.5" cy="54.5" rx="0.3" ry="0.5"/>
	<polygon id="XMLID_126_" class="st8" points="322.2,52.9 319.5,50.6 318.9,53.2 321,54.2 318.7,54.8 319.3,57.3 322.1,55.4 	"/>
	<path id="XMLID_125_" class="st9" d="M324.4,53.3c-0.3,0-0.6,0.2-0.6,0.5s0.3,0.5,0.6,0.5"/>
	<path id="XMLID_124_" class="st9" d="M326.2,52.1c-0.3,0-0.6,0.2-0.6,0.5s0.3,0.5,0.6,0.5"/>
	<path id="XMLID_123_" class="st9" d="M326.7,53.3c-0.3,0-0.6,0.2-0.6,0.5c0,0.3,0.3,0.5,0.6,0.5"/>
	<path id="XMLID_122_" class="st9" d="M326.3,54.5c-0.3,0-0.6,0.2-0.6,0.5c0,0.3,0.3,0.5,0.6,0.5"/>
	<path id="XMLID_121_" class="st9" d="M325.7,53.5c-0.3,0-0.6,0.2-0.6,0.5c0,0.3,0.3,0.5,0.6,0.5"/>
	<path id="XMLID_120_" class="st9" d="M325.2,52.3c-0.3,0-0.6,0.2-0.6,0.5s0.3,0.5,0.6,0.5"/>
	<path id="XMLID_119_" class="st9" d="M325.2,54.7c-0.3,0-0.6,0.2-0.6,0.5s0.3,0.5,0.6,0.5"/>
	<path id="XMLID_118_" class="st9" d="M329.7,53.9c-0.3,0-0.6,0.2-0.6,0.5c0,0.3,0.3,0.5,0.6,0.5"/>
	<path id="XMLID_117_" class="st9" d="M330.2,52.1c-0.3,0-0.6,0.2-0.6,0.5s0.3,0.5,0.6,0.5"/>
	<path id="XMLID_116_" class="st9" d="M328.9,52.7c-0.3,0-0.6,0.2-0.6,0.5s0.3,0.5,0.6,0.5"/>
	<path id="XMLID_115_" class="st9" d="M324.1,54.5c-0.3,0-0.6,0.2-0.6,0.5c0,0.3,0.3,0.5,0.6,0.5"/>
	<path id="XMLID_114_" class="st9" d="M323.8,52.4c-0.3,0-0.6,0.2-0.6,0.5s0.3,0.5,0.6,0.5"/>
	<path id="XMLID_113_" class="st9" d="M328.9,51.3c-0.3,0-0.6,0.2-0.6,0.5s0.3,0.5,0.6,0.5"/>
	<path id="XMLID_112_" class="st9" d="M328,52.1c-0.3,0-0.6,0.2-0.6,0.5c0,0.3,0.3,0.5,0.6,0.5"/>
	<path id="XMLID_111_" class="st9" d="M328.2,54.4c-0.3,0-0.6,0.2-0.6,0.5c0,0.3,0.3,0.5,0.6,0.5"/>
	<path id="XMLID_110_" class="st9" d="M327.9,55.7c-0.3,0-0.6,0.2-0.6,0.5c0,0.3,0.3,0.5,0.6,0.5"/>
	<path id="XMLID_109_" class="st9" d="M327.6,53.4c-0.3,0-0.6,0.2-0.6,0.5c0,0.3,0.3,0.5,0.6,0.5"/>
	<path id="XMLID_108_" class="st9" d="M327.3,54.6c-0.3,0-0.6,0.2-0.6,0.5s0.3,0.5,0.6,0.5"/>
	<path id="XMLID_107_" class="st9" d="M327.2,52.2c-0.3,0-0.6,0.2-0.6,0.5c0,0.3,0.3,0.5,0.6,0.5"/>
</g>
<g id="XMLID_309_">
	<path id="XMLID_106_" class="st10" d="M544,65.3c0,0,6.4,4.2,6.1,5.6c0,0-1.4,2.7-7.1,3.3c0,0-3.7,0.3-6.1,0c0,0-4.9-1-8.2-4.4
		c0,0,0.5-0.7,1.4-1.5c1.4-1.4,4.2-3.6,7.3-4.1C537.3,64.2,541.6,63.7,544,65.3z"/>
	<path id="XMLID_105_" class="st10" d="M545.8,66.5c0,0-3.7,3.7-0.7,7.3"/>
	<ellipse id="XMLID_104_" class="st4" cx="547.8" cy="69.8" rx="0.5" ry="0.8"/>
	<polygon id="XMLID_103_" class="st10" points="530.7,67.8 526.4,64 525.6,68.4 528.9,69.9 525.4,71.2 526.5,75.4 530.6,71.9 	"/>
	<path id="XMLID_102_" class="st11" d="M533.9,68.3c-0.5,0-0.9,0.4-0.9,0.8c0,0.4,0.4,0.8,0.9,0.8"/>
	<path id="XMLID_101_" class="st11" d="M536.6,66.2c-0.5,0-0.9,0.4-0.9,0.8s0.4,0.8,0.9,0.8"/>
	<path id="XMLID_100_" class="st11" d="M537.5,68.2c-0.5,0-0.9,0.4-0.9,0.8s0.4,0.8,0.9,0.8"/>
	<path id="XMLID_99_" class="st11" d="M536.9,70.2c-0.5,0-0.9,0.4-0.9,0.8c0,0.4,0.4,0.8,0.9,0.8"/>
	<path id="XMLID_98_" class="st11" d="M536,68.4c-0.5,0-0.9,0.4-0.9,0.8c0,0.4,0.4,0.8,0.9,0.8"/>
	<path id="XMLID_97_" class="st11" d="M535,66.5c-0.5,0-0.9,0.4-0.9,0.8c0,0.4,0.4,0.8,0.9,0.8"/>
	<path id="XMLID_96_" class="st11" d="M535.2,70.5c-0.5,0-0.9,0.4-0.9,0.8c0,0.4,0.4,0.8,0.9,0.8"/>
	<path id="XMLID_95_" class="st11" d="M542,69c-0.5,0-0.9,0.4-0.9,0.8s0.4,0.8,0.9,0.8"/>
	<path id="XMLID_94_" class="st11" d="M542.7,65.9c-0.5,0-0.9,0.4-0.9,0.8c0,0.4,0.4,0.8,0.9,0.8"/>
	<path id="XMLID_93_" class="st11" d="M540.7,67c-0.5,0-0.9,0.4-0.9,0.8c0,0.4,0.4,0.8,0.9,0.8"/>
	<path id="XMLID_92_" class="st11" d="M533.5,70.4c-0.5,0-0.9,0.4-0.9,0.8c0,0.4,0.4,0.8,0.9,0.8"/>
	<path id="XMLID_91_" class="st11" d="M533,66.8c-0.5,0-0.9,0.4-0.9,0.8c0,0.4,0.4,0.8,0.9,0.8"/>
	<path id="XMLID_90_" class="st11" d="M540.6,64.6c-0.5,0-0.9,0.4-0.9,0.8c0,0.4,0.4,0.8,0.9,0.8"/>
	<path id="XMLID_89_" class="st11" d="M539.3,66c-0.5,0-0.9,0.4-0.9,0.8s0.4,0.8,0.9,0.8"/>
	<path id="XMLID_88_" class="st11" d="M539.7,69.9c-0.5,0-0.9,0.4-0.9,0.8c0,0.4,0.4,0.8,0.9,0.8"/>
	<path id="XMLID_87_" class="st11" d="M539.3,72.1c-0.5,0-0.9,0.4-0.9,0.8c0,0.4,0.4,0.8,0.9,0.8"/>
	<path id="XMLID_86_" class="st11" d="M538.8,68.2c-0.5,0-0.9,0.4-0.9,0.8s0.4,0.8,0.9,0.8"/>
	<path id="XMLID_85_" class="st11" d="M538.4,70.4c-0.5,0-0.9,0.4-0.9,0.8c0,0.4,0.4,0.8,0.9,0.8"/>
	<path id="XMLID_84_" class="st11" d="M538,66.2c-0.5,0-0.9,0.4-0.9,0.8s0.4,0.8,0.9,0.8"/>
</g>
<g id="XMLID_285_">
	<path id="XMLID_83_" class="st12" d="M528.9,49.5c0,0,5.9,2.9,5.5,3.8c0,0-1.2,1.8-6.5,2.3c0,0-3.4,0.2-5.6,0c0,0-4.5-0.6-7.5-3
		c0,0,0.4-0.4,1.3-1c1.3-0.9,3.8-2.4,6.7-2.8C522.8,48.7,526.8,48.4,528.9,49.5z"/>
	<path id="XMLID_82_" class="st12" d="M530.6,50.3c0,0-3.4,2.5-0.6,5"/>
	<ellipse id="XMLID_81_" class="st4" cx="532.4" cy="52.5" rx="0.5" ry="0.5"/>
	<polygon id="XMLID_80_" class="st12" points="516.7,51.2 512.8,48.6 512,51.6 515.1,52.6 511.9,53.5 512.9,56.3 516.7,54 	"/>
	<path id="XMLID_79_" class="st13" d="M519.7,51.5c-0.5,0-0.8,0.2-0.8,0.6c0,0.3,0.4,0.6,0.8,0.6"/>
	<path id="XMLID_78_" class="st13" d="M522.1,50.1c-0.5,0-0.8,0.2-0.8,0.6s0.4,0.6,0.8,0.6"/>
	<path id="XMLID_77_" class="st13" d="M523,51.4c-0.5,0-0.8,0.2-0.8,0.6s0.4,0.6,0.8,0.6"/>
	<path id="XMLID_76_" class="st13" d="M522.4,52.8c-0.5,0-0.8,0.2-0.8,0.6s0.4,0.6,0.8,0.6"/>
	<path id="XMLID_75_" class="st13" d="M521.6,51.6c-0.5,0-0.8,0.2-0.8,0.6c0,0.3,0.4,0.6,0.8,0.6"/>
	<path id="XMLID_74_" class="st13" d="M520.7,50.3c-0.5,0-0.8,0.2-0.8,0.6c0,0.3,0.4,0.6,0.8,0.6"/>
	<path id="XMLID_73_" class="st13" d="M520.9,53c-0.5,0-0.8,0.2-0.8,0.6c0,0.3,0.4,0.6,0.8,0.6"/>
	<path id="XMLID_72_" class="st13" d="M527.1,52c-0.5,0-0.8,0.2-0.8,0.6c0,0.3,0.4,0.6,0.8,0.6"/>
	<path id="XMLID_71_" class="st13" d="M527.8,49.9c-0.5,0-0.8,0.2-0.8,0.6s0.4,0.6,0.8,0.6"/>
	<path id="XMLID_70_" class="st13" d="M525.9,50.6c-0.5,0-0.8,0.2-0.8,0.6c0,0.3,0.4,0.6,0.8,0.6"/>
	<path id="XMLID_69_" class="st13" d="M519.3,52.9c-0.5,0-0.8,0.2-0.8,0.6c0,0.3,0.4,0.6,0.8,0.6"/>
	<path id="XMLID_68_" class="st13" d="M518.9,50.5c-0.5,0-0.8,0.2-0.8,0.6s0.4,0.6,0.8,0.6"/>
	<path id="XMLID_67_" class="st13" d="M525.8,49c-0.5,0-0.8,0.2-0.8,0.6c0,0.3,0.4,0.6,0.8,0.6"/>
	<path id="XMLID_66_" class="st13" d="M524.6,50c-0.5,0-0.8,0.2-0.8,0.6c0,0.3,0.4,0.6,0.8,0.6"/>
	<path id="XMLID_65_" class="st13" d="M525,52.6c-0.5,0-0.8,0.2-0.8,0.6c0,0.3,0.4,0.6,0.8,0.6"/>
	<path id="XMLID_64_" class="st13" d="M524.7,54.1c-0.5,0-0.8,0.2-0.8,0.6c0,0.3,0.4,0.6,0.8,0.6"/>
	<path id="XMLID_63_" class="st13" d="M524.2,51.4c-0.5,0-0.8,0.2-0.8,0.6s0.4,0.6,0.8,0.6"/>
	<path id="XMLID_62_" class="st13" d="M523.8,52.9c-0.5,0-0.8,0.2-0.8,0.6c0,0.3,0.4,0.6,0.8,0.6"/>
	<path id="XMLID_61_" class="st13" d="M523.5,50.1c-0.5,0-0.8,0.2-0.8,0.6s0.4,0.6,0.8,0.6"/>
</g>
<g id="XMLID_261_">
	<path id="XMLID_60_" class="st14" d="M491.2,54.6c0,0,3.5,2.2,3.2,2.9c0,0-0.8,1.3-3.9,1.5c0,0-2,0.1-3.3-0.1c0,0-2.7-0.6-4.4-2.3
		c0,0,0.3-0.3,0.8-0.7c0.8-0.7,2.4-1.7,4.1-1.9C487.5,53.9,489.9,53.7,491.2,54.6z"/>
	<path id="XMLID_59_" class="st14" d="M492.2,55.2c0,0-2.1,1.8-0.5,3.6"/>
	
		<ellipse id="XMLID_58_" transform="matrix(0.9994 3.552132e-002 -3.552132e-002 0.9994 2.3304 -17.482)" class="st4" cx="493.2" cy="56.8" rx="0.3" ry="0.4"/>
	<polygon id="XMLID_57_" class="st14" points="483.8,55.5 481.5,53.6 481,55.8 482.8,56.5 480.8,57.1 481.4,59.2 483.7,57.6 	"/>
	<path id="XMLID_56_" class="st15" d="M485.6,55.9c-0.3,0-0.5,0.2-0.5,0.4c0,0.2,0.2,0.4,0.5,0.4"/>
	<path id="XMLID_55_" class="st15" d="M487.1,54.9c-0.3,0-0.5,0.2-0.5,0.4c0,0.2,0.2,0.4,0.5,0.4"/>
	<path id="XMLID_54_" class="st15" d="M487.5,55.9c-0.3,0-0.5,0.2-0.5,0.4c0,0.2,0.2,0.4,0.5,0.4"/>
	<path id="XMLID_53_" class="st15" d="M487.2,56.8c-0.3,0-0.5,0.2-0.5,0.4c0,0.2,0.2,0.4,0.5,0.4"/>
	<path id="XMLID_52_" class="st15" d="M486.7,56c-0.3,0-0.5,0.2-0.5,0.4c0,0.2,0.2,0.4,0.5,0.4"/>
	<path id="XMLID_51_" class="st15" d="M486.2,55c-0.3,0-0.5,0.2-0.5,0.4c0,0.2,0.2,0.4,0.5,0.4"/>
	<path id="XMLID_50_" class="st15" d="M486.3,57c-0.3,0-0.5,0.2-0.5,0.4c0,0.2,0.2,0.4,0.5,0.4"/>
	<path id="XMLID_49_" class="st15" d="M490,56.3c-0.3,0-0.5,0.2-0.5,0.4c0,0.2,0.2,0.4,0.5,0.4"/>
	<path id="XMLID_48_" class="st15" d="M490.5,54.8c-0.3,0-0.5,0.2-0.5,0.4c0,0.2,0.2,0.4,0.5,0.4"/>
	<path id="XMLID_47_" class="st15" d="M489.3,55.3c-0.3,0-0.5,0.2-0.5,0.4c0,0.2,0.2,0.4,0.5,0.4"/>
	<path id="XMLID_46_" class="st15" d="M485.3,56.9c-0.3,0-0.5,0.2-0.5,0.4c0,0.2,0.2,0.4,0.5,0.4"/>
	<path id="XMLID_45_" class="st15" d="M485.1,55.1c-0.3,0-0.5,0.2-0.5,0.4c0,0.2,0.2,0.4,0.5,0.4"/>
	<path id="XMLID_44_" class="st15" d="M489.3,54.1c-0.3,0-0.5,0.2-0.5,0.4c0,0.2,0.2,0.4,0.5,0.4"/>
	<path id="XMLID_43_" class="st15" d="M488.6,54.8c-0.3,0-0.5,0.2-0.5,0.4s0.2,0.4,0.5,0.4"/>
	<path id="XMLID_42_" class="st15" d="M488.8,56.8c-0.3,0-0.5,0.2-0.5,0.4c0,0.2,0.2,0.4,0.5,0.4"/>
	<path id="XMLID_41_" class="st15" d="M488.5,57.8c-0.3,0-0.5,0.2-0.5,0.4c0,0.2,0.2,0.4,0.5,0.4"/>
	<path id="XMLID_40_" class="st15" d="M488.3,55.9c-0.3,0-0.5,0.2-0.5,0.4s0.2,0.4,0.5,0.4"/>
	<path id="XMLID_39_" class="st15" d="M488,56.9c-0.3,0-0.5,0.2-0.5,0.4c0,0.2,0.2,0.4,0.5,0.4"/>
	<path id="XMLID_38_" class="st15" d="M487.9,54.9c-0.3,0-0.5,0.2-0.5,0.4c0,0.2,0.2,0.4,0.5,0.4"/>
</g>
<g id="XMLID_194_">
	<polygon id="XMLID_37_" class="st16" points="412.9,60.2 390,60.2 378.6,41 390,21.9 412.9,21.9 424.3,41 	"/>
	<path id="XMLID_36_" class="st17" d="M406.7,40c0,2.9-2.4,5.2-5.4,5.2c-2.2,0-4.1-1.3-4.9-3.1c-0.3-0.7-0.5-1.4-0.5-2.1
		c0-2.9,2.4-5.2,5.4-5.2C404.3,34.8,406.7,37.2,406.7,40z"/>
	<polygon id="XMLID_35_" class="st18" points="409.4,22.1 412.7,22 420.1,28.1 422.3,32.1 424.1,41.1 422.3,44.1 	"/>
	<polygon id="XMLID_34_" class="st16" points="410.9,33.2 413,36.7 416.9,34.4 414.9,30.9 	"/>
	<path id="XMLID_33_" class="st19" d="M421.5,27.7l-4.1,2.1l-0.4,2l1.9,0.5l4.4-2.5C423.3,29.8,421.9,29.1,421.5,27.7z"/>
	<ellipse id="XMLID_32_" class="st20" cx="424.8" cy="27.4" rx="3.5" ry="3.2"/>
	<polygon id="XMLID_31_" class="st18" points="392.4,21.6 389.1,21.4 381.6,27.5 379.4,31.5 377.7,40.4 379.5,43.5 	"/>
	<polygon id="XMLID_30_" class="st16" points="390.9,32.6 388.8,36.1 384.8,33.8 386.9,30.3 	"/>
	<path id="XMLID_29_" class="st19" d="M380.3,27l4.1,2.1l0.4,2l-1.9,0.5l-4.4-2.6C378.5,29.2,379.9,28.5,380.3,27z"/>
	<ellipse id="XMLID_28_" class="st20" cx="377" cy="26.8" rx="3.5" ry="3.2"/>
	<polygon id="XMLID_27_" class="st21" points="413.8,57.8 412.3,60.6 403.5,63.8 399,63.7 390.4,60.6 388.7,57.6 	"/>
	<polygon id="XMLID_26_" class="st16" points="403.5,53.5 399.5,53.5 399.6,58 403.6,58 	"/>
	<path id="XMLID_25_" class="st22" d="M403.2,65.1l0.2-4.5l-1.6-1.3l-1.4,1.3l0.1,5C400.5,65.6,401.8,64.8,403.2,65.1z"/>
	<path id="XMLID_24_" class="st23" d="M400.2,70.9c-1.5-0.9-2-2.9-1.1-4.5c0.9-1.6,2.9-2.2,4.5-1.3s2,2.9,1.1,4.5
		C403.7,71.3,401.7,71.8,400.2,70.9z"/>
	<polygon id="XMLID_23_" class="st18" points="412.8,21.6 411.4,18.8 402.9,15.6 398.6,15.7 390.4,18.7 388.7,21.7 	"/>
	<polygon id="XMLID_22_" class="st16" points="403,25.9 399.1,25.9 399.2,21.4 403,21.4 	"/>
	<path id="XMLID_21_" class="st24" d="M402.7,14.3l0.2,4.5l-1.5,1.3l-1.3-1.3l0.1-5C400.1,13.8,401.3,14.6,402.7,14.3z"/>
	<path id="XMLID_20_" class="st25" d="M399.9,9.1c-1.6,1-2.2,3.1-1.3,4.7c0.9,1.6,2.9,2.1,4.5,1.2s2.2-3.1,1.3-4.7
		C403.5,8.6,401.5,8.1,399.9,9.1z"/>
	<polygon id="XMLID_19_" class="st26" points="379.8,43.5 378.6,45.4 380.2,51.7 382.2,54.2 387.9,58 390.7,57.8 	"/>
	<polygon id="XMLID_18_" class="st16" points="387.1,47.7 388.8,50 385.7,51.7 384,49.4 	"/>
	<path id="XMLID_17_" class="st27" d="M379.4,52.4l3-1.9l1.6,0.4l-0.3,1.3l-3.4,1.9C380.2,54.1,380.2,53.1,379.4,52.4z"/>
	<path id="XMLID_16_" class="st28" d="M376.6,56.3c1.4,0.6,3,0.1,3.8-1.1c0.7-1.2,0.2-2.6-1.2-3.2c-1.4-0.6-3-0.1-3.8,1.1
		C374.7,54.3,375.2,55.7,376.6,56.3z"/>
	<polygon id="XMLID_15_" class="st26" points="422.1,43.5 423.3,45.5 421.7,51.8 419.7,54.3 414,58 411.2,57.9 	"/>
	<polygon id="XMLID_14_" class="st16" points="414.8,47.7 413.1,50 416.1,51.8 417.9,49.4 	"/>
	<path id="XMLID_13_" class="st27" d="M422.5,52.4l-3-1.9L418,51l0.3,1.3l3.4,1.9C421.7,54.2,421.7,53.1,422.5,52.4z"/>
	<path id="XMLID_12_" class="st29" d="M425.1,56.4c-1.3,0.5-2.9,0-3.5-1.1c-0.7-1.2-0.2-2.5,1-3.1s2.9,0,3.5,1.1
		C426.9,54.5,426.4,55.9,425.1,56.4z"/>
	<line id="XMLID_11_" class="st30" x1="385.6" y1="31.6" x2="396.4" y2="37.2"/>
	<line id="XMLID_10_" class="st30" x1="384.7" y1="50.6" x2="396.4" y2="43"/>
	<line id="XMLID_9_" class="st30" x1="416.3" y1="32.1" x2="406.3" y2="37.2"/>
	<line id="XMLID_8_" class="st30" x1="417.1" y1="50.8" x2="406.1" y2="43"/>
	<line id="XMLID_7_" class="st30" x1="401.4" y1="21" x2="401.4" y2="34.4"/>
	<line id="XMLID_6_" class="st30" x1="401.9" y1="58.3" x2="401.6" y2="45.7"/>
</g>
<rect id="XMLID_5_" x="226.6" y="157.5" class="st31" width="351.7" height="50"/>
<rect id="XMLID_4_" x="226.6" y="207.5" class="st32" width="351.7" height="50"/>
<rect id="XMLID_3_" x="226.1" y="257.5" class="st33" width="351.7" height="50"/>
<rect id="XMLID_2_" x="227" y="304.2" class="st34" width="351.7" height="50"/>
<rect id="XMLID_1_" x="226.3" y="354.2" class="st35" width="351.7" height="795.8"/>
</svg>
