<?xml version="1.0" encoding="utf-8"?>
<!-- Generator: Adobe Illustrator 19.0.0, SVG Export Plug-In . SVG Version: 6.00 Build 0)  -->
<svg version="1.1" id="Layer_1" xmlns="http://www.w3.org/2000/svg" xmlns:xlink="http://www.w3.org/1999/xlink" x="0px" y="0px"
	 viewBox="0 0 841.9 1190.6" style="enable-background:new 0 0 841.9 1190.6;" xml:space="preserve">
<style type="text/css">
	.st0{fill:#66C9D6;}
	.st1{fill:#53C4C7;}
	.st2{fill:#60C7CB;stroke:#010101;stroke-width:0.2023;stroke-miterlimit:10;}
	.st3{fill:#010101;}
	.st4{fill:none;stroke:#A9DDE2;stroke-width:7.191096e-002;stroke-miterlimit:10;}
	.st5{fill:#E41A52;stroke:#010101;stroke-width:0.1611;stroke-miterlimit:10;}
	.st6{fill:none;stroke:#F499BA;stroke-width:6.891721e-002;stroke-miterlimit:10;}
	.st7{fill:#8081BE;stroke:#010101;stroke-width:0.167;stroke-miterlimit:10;}
	.st8{fill:none;stroke:#A0A3D2;stroke-width:7.309188e-002;stroke-miterlimit:10;}
	.st9{fill:#EF457F;stroke:#010101;stroke-width:0.2673;stroke-miterlimit:10;}
	.st10{fill:none;stroke:#F499BA;stroke-width:0.1144;stroke-miterlimit:10;}
	.st11{fill:#60C7CB;stroke:#010101;stroke-width:0.2111;stroke-miterlimit:10;}
	.st12{fill:none;stroke:#A9DDE2;stroke-width:7.503071e-002;stroke-miterlimit:10;}
	.st13{fill:#8081BE;stroke:#010101;stroke-width:0.1391;stroke-miterlimit:10;}
	.st14{fill:none;stroke:#A0A3D2;stroke-width:6.088168e-002;stroke-miterlimit:10;}
	.st15{fill:#FEEC44;}
	.st16{fill:#FFFFFF;stroke:#4C3314;stroke-width:0.2372;stroke-miterlimit:10;}
	.st17{fill:#FFFFFF;stroke:#4C3314;stroke-width:0.3152;stroke-miterlimit:10;}
	.st18{fill:#F9D98A;stroke:#4C3314;stroke-width:0.4977;stroke-miterlimit:10;}
	.st19{fill:#F9D98A;stroke:#4C3314;stroke-width:0.583;stroke-miterlimit:10;}
	.st20{fill:#FFFFFF;stroke:#66C9D6;stroke-width:0.3093;stroke-miterlimit:10;}
	.st21{fill:#F9D98A;stroke:#66C9D6;stroke-width:0.4885;stroke-miterlimit:10;}
	.st22{fill:#F9D98A;stroke:#66C9D6;stroke-width:0.5723;stroke-miterlimit:10;}
	.st23{fill:#F9D98A;stroke:#4C3314;stroke-width:0.4782;stroke-miterlimit:10;}
	.st24{fill:#F9D98A;stroke:#4C3314;stroke-width:0.5862;stroke-miterlimit:10;}
	.st25{fill:#FFFFFF;stroke:#66C9D6;stroke-width:0.2302;stroke-miterlimit:10;}
	.st26{fill:#F9D98A;stroke:#66C9D6;stroke-width:0.3635;stroke-miterlimit:10;}
	.st27{fill:#F9D98A;stroke:#66C9D6;stroke-width:0.4472;stroke-miterlimit:10;}
	.st28{fill:#F9D98A;stroke:#66C9D6;stroke-width:0.4258;stroke-miterlimit:10;}
	.st29{fill:none;stroke:#FFFFFF;stroke-width:0.7064;stroke-miterlimit:10;}
	.st30{fill:#2BBCB5;}
	.st31{fill:#1BADA2;}
	.st32{fill:#1FA3A3;}
	.st33{fill:#2191A0;}
	.st34{fill:#22869E;}
</style>
<g id="XMLID_188_">
	<rect id="XMLID_187_" x="226.6" y="49.7" class="st0" width="363.6" height="449.4"/>
	<polygon id="XMLID_186_" class="st0" points="226.6,49.7 590.2,49.7 590.2,83.8 226.6,82.8 	"/>
	<rect id="XMLID_185_" x="226.6" y="106.5" class="st1" width="363.6" height="51.7"/>
	<path id="XMLID_184_" class="st0" d="M225.6,35.1c0,0,14.4,15.2,58.8,6.3c0,0,42-6.3,52.1,0c0,0,36.6,8.3,75.1-1.8
		c0,0,125.1-16,179,2.6l0.1,18.9c0,0-1.9,18.9-19.6,18.9H242.4c0,0-16.9-3.8-16.9-21V35.1z"/>
	<g id="XMLID_381_">
		<path id="XMLID_175_" class="st2" d="M303,68.9c0,0,5,3.4,4.7,4.5c0,0-1.2,2-5.8,2.3c0,0-3,0.2-4.9-0.2c0,0-3.9-0.9-6.4-3.6
			c0,0,0.4-0.5,1.1-1.1c1.2-1,3.4-2.6,5.9-2.9C297.7,67.9,301.1,67.6,303,68.9z"/>
		<path id="XMLID_174_" class="st2" d="M304.4,69.9c0,0-3.1,2.8-0.8,5.6"/>
		
			<ellipse id="XMLID_173_" transform="matrix(0.9994 3.552132e-002 -3.552132e-002 0.9994 2.767 -10.8202)" class="st3" cx="305.9" cy="72.5" rx="0.4" ry="0.6"/>
		<polygon id="XMLID_172_" class="st2" points="292.2,70.5 288.9,67.4 288.1,70.8 290.8,72 287.9,72.9 288.7,76.1 292.1,73.6 		"/>
		<path id="XMLID_171_" class="st4" d="M294.8,70.9c-0.4,0-0.7,0.3-0.7,0.6c0,0.3,0.3,0.6,0.7,0.6"/>
		<path id="XMLID_170_" class="st4" d="M297,69.4c-0.4,0-0.7,0.3-0.7,0.6c0,0.3,0.3,0.6,0.7,0.6"/>
		<path id="XMLID_169_" class="st4" d="M297.7,71c-0.4,0-0.7,0.3-0.7,0.6c0,0.3,0.3,0.6,0.7,0.6"/>
		<path id="XMLID_168_" class="st4" d="M297.2,72.5c-0.4,0-0.7,0.3-0.7,0.6c0,0.3,0.3,0.6,0.7,0.6"/>
		<path id="XMLID_167_" class="st4" d="M296.5,71.1c-0.4,0-0.7,0.3-0.7,0.6c0,0.3,0.3,0.6,0.7,0.6"/>
		<path id="XMLID_166_" class="st4" d="M295.8,69.6c-0.4,0-0.7,0.3-0.7,0.6c0,0.3,0.3,0.6,0.7,0.6"/>
		<path id="XMLID_165_" class="st4" d="M295.8,72.7c-0.4,0-0.7,0.3-0.7,0.6c0,0.3,0.3,0.6,0.7,0.6"/>
		<path id="XMLID_164_" class="st4" d="M301.3,71.7c-0.4,0-0.7,0.3-0.7,0.6c0,0.3,0.3,0.6,0.7,0.6"/>
		<path id="XMLID_163_" class="st4" d="M302,69.3c-0.4,0-0.7,0.3-0.7,0.6c0,0.3,0.3,0.6,0.7,0.6"/>
		<path id="XMLID_162_" class="st4" d="M300.3,70.1c-0.4,0-0.7,0.3-0.7,0.6c0,0.3,0.3,0.6,0.7,0.6"/>
		<path id="XMLID_161_" class="st4" d="M294.4,72.5c-0.4,0-0.7,0.3-0.7,0.6c0,0.3,0.3,0.6,0.7,0.6"/>
		<path id="XMLID_160_" class="st4" d="M294.2,69.8c-0.4,0-0.7,0.3-0.7,0.6c0,0.3,0.3,0.6,0.7,0.6"/>
		<path id="XMLID_159_" class="st4" d="M300.3,68.3c-0.4,0-0.7,0.3-0.7,0.6c0,0.3,0.3,0.6,0.7,0.6"/>
		<path id="XMLID_158_" class="st4" d="M299.2,69.4c-0.4,0-0.7,0.3-0.7,0.6c0,0.3,0.3,0.6,0.7,0.6"/>
		<path id="XMLID_157_" class="st4" d="M299.5,72.4c-0.4,0-0.7,0.3-0.7,0.6c0,0.3,0.3,0.6,0.7,0.6"/>
		<path id="XMLID_156_" class="st4" d="M299.1,74c-0.4,0-0.7,0.3-0.7,0.6c0,0.3,0.3,0.6,0.7,0.6"/>
		<path id="XMLID_155_" class="st4" d="M298.8,71c-0.4,0-0.7,0.3-0.7,0.6c0,0.3,0.3,0.6,0.7,0.6"/>
		<path id="XMLID_154_" class="st4" d="M298.4,72.6c-0.4,0-0.7,0.3-0.7,0.6c0,0.3,0.3,0.6,0.7,0.6"/>
		<path id="XMLID_153_" class="st4" d="M298.2,69.5c-0.4,0-0.7,0.3-0.7,0.6c0,0.3,0.3,0.6,0.7,0.6"/>
	</g>
	<g id="XMLID_357_">
		<path id="XMLID_152_" class="st5" d="M263.3,57.6c0,0,4.1,2.6,3.9,3.5c0,0-0.9,1.5-4.7,1.8c0,0-2.4,0.1-4-0.1c0,0-3.2-0.7-5.3-2.8
			c0,0,0.3-0.4,0.9-0.9c1-0.8,2.8-2,4.9-2.3C258.9,56.8,261.8,56.6,263.3,57.6z"/>
		<path id="XMLID_151_" class="st5" d="M264.5,58.3c0,0-2.5,2.1-0.6,4.3"/>
		
			<ellipse id="XMLID_150_" transform="matrix(0.9994 3.552132e-002 -3.552132e-002 0.9994 2.3097 -9.3996)" class="st3" cx="265.7" cy="60.3" rx="0.3" ry="0.5"/>
		<polygon id="XMLID_149_" class="st5" points="254.5,58.7 251.7,56.4 251.1,59 253.3,59.9 250.9,60.6 251.6,63.1 254.3,61.2 		"/>
		<path id="XMLID_148_" class="st6" d="M256.6,59.1c-0.3,0-0.6,0.2-0.6,0.5c0,0.3,0.3,0.5,0.6,0.5"/>
		<path id="XMLID_147_" class="st6" d="M258.4,57.9c-0.3,0-0.6,0.2-0.6,0.5s0.3,0.5,0.6,0.5"/>
		<path id="XMLID_146_" class="st6" d="M259,59.1c-0.3,0-0.6,0.2-0.6,0.5c0,0.3,0.3,0.5,0.6,0.5"/>
		<path id="XMLID_145_" class="st6" d="M258.5,60.3c-0.3,0-0.6,0.2-0.6,0.5c0,0.3,0.3,0.5,0.6,0.5"/>
		<path id="XMLID_144_" class="st6" d="M257.9,59.2c-0.3,0-0.6,0.2-0.6,0.5c0,0.3,0.3,0.5,0.6,0.5"/>
		<path id="XMLID_143_" class="st6" d="M257.4,58.1c-0.3,0-0.6,0.2-0.6,0.5c0,0.3,0.3,0.5,0.6,0.5"/>
		<path id="XMLID_142_" class="st6" d="M257.4,60.4c-0.3,0-0.6,0.2-0.6,0.5c0,0.3,0.3,0.5,0.6,0.5"/>
		<path id="XMLID_141_" class="st6" d="M261.9,59.7c-0.3,0-0.6,0.2-0.6,0.5c0,0.3,0.3,0.5,0.6,0.5"/>
		<path id="XMLID_140_" class="st6" d="M262.4,57.9c-0.3,0-0.6,0.2-0.6,0.5c0,0.3,0.3,0.5,0.6,0.5"/>
		<path id="XMLID_139_" class="st6" d="M261.1,58.5c-0.3,0-0.6,0.2-0.6,0.5c0,0.3,0.3,0.5,0.6,0.5"/>
		<path id="XMLID_138_" class="st6" d="M256.3,60.3c-0.3,0-0.6,0.2-0.6,0.5c0,0.3,0.3,0.5,0.6,0.5"/>
		<path id="XMLID_137_" class="st6" d="M256,58.2c-0.3,0-0.6,0.2-0.6,0.5c0,0.3,0.3,0.5,0.6,0.5"/>
		<path id="XMLID_136_" class="st6" d="M261.1,57.1c-0.3,0-0.6,0.2-0.6,0.5c0,0.3,0.3,0.5,0.6,0.5"/>
		<path id="XMLID_135_" class="st6" d="M260.2,57.9c-0.3,0-0.6,0.2-0.6,0.5c0,0.3,0.3,0.5,0.6,0.5"/>
		<path id="XMLID_134_" class="st6" d="M260.4,60.2c-0.3,0-0.6,0.2-0.6,0.5s0.3,0.5,0.6,0.5"/>
		<path id="XMLID_133_" class="st6" d="M260.1,61.5c-0.3,0-0.6,0.2-0.6,0.5c0,0.3,0.3,0.5,0.6,0.5"/>
		<path id="XMLID_132_" class="st6" d="M259.8,59.2c-0.3,0-0.6,0.2-0.6,0.5s0.3,0.5,0.6,0.5"/>
		<path id="XMLID_131_" class="st6" d="M259.5,60.4c-0.3,0-0.6,0.2-0.6,0.5s0.3,0.5,0.6,0.5"/>
		<path id="XMLID_130_" class="st6" d="M259.4,58c-0.3,0-0.6,0.2-0.6,0.5c0,0.3,0.3,0.5,0.6,0.5"/>
	</g>
	<g id="XMLID_333_">
		<path id="XMLID_129_" class="st7" d="M334.6,49.7c0,0,4.3,2.7,4,3.6c0,0-1,1.6-4.9,1.9c0,0-2.5,0.1-4.2-0.1c0,0-3.3-0.7-5.5-2.9
			c0,0,0.3-0.4,1-0.9c1-0.8,2.9-2.1,5-2.3C330.1,48.8,333.1,48.6,334.6,49.7z"/>
		<path id="XMLID_128_" class="st7" d="M335.9,50.5c0,0-2.6,2.2-0.6,4.5"/>
		
			<ellipse id="XMLID_127_" transform="matrix(0.9994 3.552132e-002 -3.552132e-002 0.9994 2.0769 -11.9418)" class="st3" cx="337.1" cy="52.5" rx="0.4" ry="0.5"/>
		<polygon id="XMLID_126_" class="st7" points="325.5,50.9 322.6,48.4 322,51.1 324.2,52.1 321.8,52.8 322.5,55.4 325.4,53.4 		"/>
		<path id="XMLID_125_" class="st8" d="M327.7,51.2c-0.3,0-0.6,0.2-0.6,0.5c0,0.3,0.3,0.5,0.6,0.5"/>
		<path id="XMLID_124_" class="st8" d="M329.6,50c-0.3,0-0.6,0.2-0.6,0.5c0,0.3,0.3,0.5,0.6,0.5"/>
		<path id="XMLID_123_" class="st8" d="M330.1,51.3c-0.3,0-0.6,0.2-0.6,0.5c0,0.3,0.3,0.5,0.6,0.5"/>
		<path id="XMLID_122_" class="st8" d="M329.7,52.5c-0.3,0-0.6,0.2-0.6,0.5c0,0.3,0.3,0.5,0.6,0.5"/>
		<path id="XMLID_121_" class="st8" d="M329.1,51.4c-0.3,0-0.6,0.2-0.6,0.5c0,0.3,0.3,0.5,0.6,0.5"/>
		<path id="XMLID_120_" class="st8" d="M328.5,50.2c-0.3,0-0.6,0.2-0.6,0.5c0,0.3,0.3,0.5,0.6,0.5"/>
		<path id="XMLID_119_" class="st8" d="M328.5,52.6c-0.3,0-0.6,0.2-0.6,0.5c0,0.3,0.3,0.5,0.6,0.5"/>
		<path id="XMLID_118_" class="st8" d="M333.2,51.9c-0.3,0-0.6,0.2-0.6,0.5c0,0.3,0.3,0.5,0.6,0.5"/>
		<path id="XMLID_117_" class="st8" d="M333.8,50c-0.3,0-0.6,0.2-0.6,0.5c0,0.3,0.3,0.5,0.6,0.5"/>
		<path id="XMLID_116_" class="st8" d="M332.4,50.6c-0.3,0-0.6,0.2-0.6,0.5c0,0.3,0.3,0.5,0.6,0.5"/>
		<path id="XMLID_115_" class="st8" d="M327.4,52.5c-0.3,0-0.6,0.2-0.6,0.5c0,0.3,0.3,0.5,0.6,0.5"/>
		<path id="XMLID_114_" class="st8" d="M327.1,50.3c-0.3,0-0.6,0.2-0.6,0.5c0,0.3,0.3,0.5,0.6,0.5"/>
		<path id="XMLID_113_" class="st8" d="M332.3,49.1c-0.3,0-0.6,0.2-0.6,0.5c0,0.3,0.3,0.5,0.6,0.5"/>
		<path id="XMLID_112_" class="st8" d="M331.4,50c-0.3,0-0.6,0.2-0.6,0.5c0,0.3,0.3,0.5,0.6,0.5"/>
		<path id="XMLID_111_" class="st8" d="M331.6,52.4c-0.3,0-0.6,0.2-0.6,0.5c0,0.3,0.3,0.5,0.6,0.5"/>
		<path id="XMLID_110_" class="st8" d="M331.3,53.7c-0.3,0-0.6,0.2-0.6,0.5c0,0.3,0.3,0.5,0.6,0.5"/>
		<path id="XMLID_109_" class="st8" d="M331.1,51.3c-0.3,0-0.6,0.2-0.6,0.5c0,0.3,0.3,0.5,0.6,0.5"/>
		<path id="XMLID_108_" class="st8" d="M330.7,52.6c-0.3,0-0.6,0.2-0.6,0.5s0.3,0.5,0.6,0.5"/>
		<path id="XMLID_107_" class="st8" d="M330.6,50.1c-0.3,0-0.6,0.2-0.6,0.5c0,0.3,0.3,0.5,0.6,0.5"/>
	</g>
	<g id="XMLID_309_">
		<path id="XMLID_106_" class="st9" d="M554.7,63.6c0,0,6.6,4.3,6.3,5.8c0,0-1.4,2.8-7.3,3.4c0,0-3.8,0.4-6.3,0c0,0-5.1-1-8.5-4.5
			c0,0,0.5-0.7,1.4-1.6c1.5-1.4,4.3-3.7,7.5-4.3C547.8,62.5,552.3,62,554.7,63.6z"/>
		<path id="XMLID_105_" class="st9" d="M556.6,64.9c0,0-3.8,3.9-0.7,7.6"/>
		<ellipse id="XMLID_104_" class="st3" cx="558.6" cy="68.3" rx="0.5" ry="0.8"/>
		<polygon id="XMLID_103_" class="st9" points="541,66.2 536.5,62.3 535.7,66.9 539.1,68.4 535.5,69.7 536.7,74 540.9,70.5 		"/>
		<path id="XMLID_102_" class="st10" d="M544.3,66.7c-0.5,0-0.9,0.4-0.9,0.8c0,0.5,0.4,0.8,0.9,0.8"/>
		<path id="XMLID_101_" class="st10" d="M547.1,64.5c-0.5,0-0.9,0.4-0.9,0.8c0,0.5,0.4,0.8,0.9,0.8"/>
		<path id="XMLID_100_" class="st10" d="M548,66.6c-0.5,0-0.9,0.4-0.9,0.8c0,0.5,0.4,0.8,0.9,0.8"/>
		<path id="XMLID_99_" class="st10" d="M547.4,68.7c-0.5,0-0.9,0.4-0.9,0.8c0,0.5,0.4,0.8,0.9,0.8"/>
		<path id="XMLID_98_" class="st10" d="M546.4,66.9c-0.5,0-0.9,0.4-0.9,0.8s0.4,0.8,0.9,0.8"/>
		<path id="XMLID_97_" class="st10" d="M545.5,64.9c-0.5,0-0.9,0.4-0.9,0.8c0,0.5,0.4,0.8,0.9,0.8"/>
		<path id="XMLID_96_" class="st10" d="M545.7,69c-0.5,0-0.9,0.4-0.9,0.8c0,0.5,0.4,0.8,0.9,0.8"/>
		<path id="XMLID_95_" class="st10" d="M552.6,67.4c-0.5,0-0.9,0.4-0.9,0.8c0,0.5,0.4,0.8,0.9,0.8"/>
		<path id="XMLID_94_" class="st10" d="M553.4,64.2c-0.5,0-0.9,0.4-0.9,0.8c0,0.5,0.4,0.8,0.9,0.8"/>
		<path id="XMLID_93_" class="st10" d="M551.3,65.4c-0.5,0-0.9,0.4-0.9,0.8c0,0.5,0.4,0.8,0.9,0.8"/>
		<path id="XMLID_92_" class="st10" d="M543.9,68.9c-0.5,0-0.9,0.4-0.9,0.8c0,0.5,0.4,0.8,0.9,0.8"/>
		<path id="XMLID_91_" class="st10" d="M543.4,65.2c-0.5,0-0.9,0.4-0.9,0.8s0.4,0.8,0.9,0.8"/>
		<path id="XMLID_90_" class="st10" d="M551.2,62.9c-0.5,0-0.9,0.4-0.9,0.8c0,0.5,0.4,0.8,0.9,0.8"/>
		<path id="XMLID_89_" class="st10" d="M549.9,64.4c-0.5,0-0.9,0.4-0.9,0.8s0.4,0.8,0.9,0.8"/>
		<path id="XMLID_88_" class="st10" d="M550.3,68.4c-0.5,0-0.9,0.4-0.9,0.8c0,0.5,0.4,0.8,0.9,0.8"/>
		<path id="XMLID_87_" class="st10" d="M549.9,70.7c-0.5,0-0.9,0.4-0.9,0.8c0,0.5,0.4,0.8,0.9,0.8"/>
		<path id="XMLID_86_" class="st10" d="M549.4,66.6c-0.5,0-0.9,0.4-0.9,0.8c0,0.5,0.4,0.8,0.9,0.8"/>
		<path id="XMLID_85_" class="st10" d="M548.9,68.9c-0.5,0-0.9,0.4-0.9,0.8c0,0.5,0.4,0.8,0.9,0.8"/>
		<path id="XMLID_84_" class="st10" d="M548.6,64.5c-0.5,0-0.9,0.4-0.9,0.8c0,0.5,0.4,0.8,0.9,0.8"/>
	</g>
	<g id="XMLID_285_">
		<path id="XMLID_83_" class="st11" d="M539.1,47.3c0,0,6.1,3,5.7,4c0,0-1.3,1.9-6.7,2.3c0,0-3.5,0.2-5.8,0c0,0-4.6-0.7-7.8-3.1
			c0,0,0.5-0.5,1.3-1.1c1.3-1,3.9-2.5,6.9-2.9C532.8,46.5,536.9,46.1,539.1,47.3z"/>
		<path id="XMLID_82_" class="st11" d="M540.9,48.1c0,0-3.5,2.6-0.7,5.2"/>
		<ellipse id="XMLID_81_" class="st3" cx="542.7" cy="50.4" rx="0.5" ry="0.6"/>
		<polygon id="XMLID_80_" class="st11" points="526.5,49 522.5,46.3 521.7,49.5 524.9,50.5 521.5,51.4 522.6,54.3 526.5,51.9 		"/>
		<path id="XMLID_79_" class="st12" d="M529.6,49.4c-0.5,0-0.9,0.3-0.9,0.6c0,0.3,0.4,0.6,0.9,0.6"/>
		<path id="XMLID_78_" class="st12" d="M532.1,47.9c-0.5,0-0.9,0.3-0.9,0.6c0,0.3,0.4,0.6,0.9,0.6"/>
		<path id="XMLID_77_" class="st12" d="M533,49.3c-0.5,0-0.9,0.3-0.9,0.6c0,0.3,0.4,0.6,0.9,0.6"/>
		<path id="XMLID_76_" class="st12" d="M532.4,50.7c-0.5,0-0.9,0.3-0.9,0.6c0,0.3,0.4,0.6,0.9,0.6"/>
		<path id="XMLID_75_" class="st12" d="M531.6,49.5c-0.5,0-0.9,0.3-0.9,0.6s0.4,0.6,0.9,0.6"/>
		<path id="XMLID_74_" class="st12" d="M530.7,48.1c-0.5,0-0.9,0.3-0.9,0.6c0,0.3,0.4,0.6,0.9,0.6"/>
		<path id="XMLID_73_" class="st12" d="M530.9,50.9c-0.5,0-0.9,0.3-0.9,0.6c0,0.3,0.4,0.6,0.9,0.6"/>
		<path id="XMLID_72_" class="st12" d="M537.3,49.9c-0.5,0-0.9,0.3-0.9,0.6c0,0.3,0.4,0.6,0.9,0.6"/>
		<path id="XMLID_71_" class="st12" d="M538,47.7c-0.5,0-0.9,0.3-0.9,0.6s0.4,0.6,0.9,0.6"/>
		<path id="XMLID_70_" class="st12" d="M536,48.5c-0.5,0-0.9,0.3-0.9,0.6s0.4,0.6,0.9,0.6"/>
		<path id="XMLID_69_" class="st12" d="M529.2,50.8c-0.5,0-0.9,0.3-0.9,0.6s0.4,0.6,0.9,0.6"/>
		<path id="XMLID_68_" class="st12" d="M528.8,48.3c-0.5,0-0.9,0.3-0.9,0.6s0.4,0.6,0.9,0.6"/>
		<path id="XMLID_67_" class="st12" d="M535.9,46.7c-0.5,0-0.9,0.3-0.9,0.6c0,0.3,0.4,0.6,0.9,0.6"/>
		<path id="XMLID_66_" class="st12" d="M534.7,47.8c-0.5,0-0.9,0.3-0.9,0.6c0,0.3,0.4,0.6,0.9,0.6"/>
		<path id="XMLID_65_" class="st12" d="M535.1,50.5c-0.5,0-0.9,0.3-0.9,0.6c0,0.3,0.4,0.6,0.9,0.6"/>
		<path id="XMLID_64_" class="st12" d="M534.8,52.1c-0.5,0-0.9,0.3-0.9,0.6c0,0.3,0.4,0.6,0.9,0.6"/>
		<path id="XMLID_63_" class="st12" d="M534.3,49.3c-0.5,0-0.9,0.3-0.9,0.6c0,0.3,0.4,0.6,0.9,0.6"/>
		<path id="XMLID_62_" class="st12" d="M533.9,50.8c-0.5,0-0.9,0.3-0.9,0.6s0.4,0.6,0.9,0.6"/>
		<path id="XMLID_61_" class="st12" d="M533.5,47.9c-0.5,0-0.9,0.3-0.9,0.6c0,0.3,0.4,0.6,0.9,0.6"/>
	</g>
	<g id="XMLID_261_">
		<path id="XMLID_60_" class="st13" d="M500.1,52.5c0,0,3.6,2.3,3.3,3c0,0-0.8,1.3-4.1,1.5c0,0-2.1,0.1-3.5-0.1c0,0-2.8-0.6-4.6-2.4
			c0,0,0.3-0.3,0.8-0.7c0.8-0.7,2.4-1.7,4.2-2C496.3,51.8,498.8,51.7,500.1,52.5z"/>
		<path id="XMLID_59_" class="st13" d="M501.2,53.2c0,0-2.2,1.8-0.5,3.7"/>
		
			<ellipse id="XMLID_58_" transform="matrix(0.9994 3.552132e-002 -3.552132e-002 0.9994 2.2665 -17.8039)" class="st3" cx="502.2" cy="54.9" rx="0.3" ry="0.4"/>
		<polygon id="XMLID_57_" class="st13" points="492.5,53.5 490.1,51.5 489.6,53.8 491.5,54.6 489.4,55.2 490,57.3 492.4,55.6 		"/>
		<path id="XMLID_56_" class="st14" d="M494.4,53.9c-0.3,0-0.5,0.2-0.5,0.4s0.2,0.4,0.5,0.4"/>
		<path id="XMLID_55_" class="st14" d="M495.9,52.8c-0.3,0-0.5,0.2-0.5,0.4s0.2,0.4,0.5,0.4"/>
		<path id="XMLID_54_" class="st14" d="M496.4,53.9c-0.3,0-0.5,0.2-0.5,0.4s0.2,0.4,0.5,0.4"/>
		<path id="XMLID_53_" class="st14" d="M496,54.9c-0.3,0-0.5,0.2-0.5,0.4c0,0.2,0.2,0.4,0.5,0.4"/>
		<path id="XMLID_52_" class="st14" d="M495.5,54c-0.3,0-0.5,0.2-0.5,0.4s0.2,0.4,0.5,0.4"/>
		<path id="XMLID_51_" class="st14" d="M495,53c-0.3,0-0.5,0.2-0.5,0.4s0.2,0.4,0.5,0.4"/>
		<path id="XMLID_50_" class="st14" d="M495,55c-0.3,0-0.5,0.2-0.5,0.4s0.2,0.4,0.5,0.4"/>
		<path id="XMLID_49_" class="st14" d="M498.9,54.4c-0.3,0-0.5,0.2-0.5,0.4s0.2,0.4,0.5,0.4"/>
		<path id="XMLID_48_" class="st14" d="M499.4,52.8c-0.3,0-0.5,0.2-0.5,0.4s0.2,0.4,0.5,0.4"/>
		<path id="XMLID_47_" class="st14" d="M498.2,53.3c-0.3,0-0.5,0.2-0.5,0.4s0.2,0.4,0.5,0.4"/>
		<path id="XMLID_46_" class="st14" d="M494.1,54.9c-0.3,0-0.5,0.2-0.5,0.4c0,0.2,0.2,0.4,0.5,0.4"/>
		<path id="XMLID_45_" class="st14" d="M493.9,53.1c-0.3,0-0.5,0.2-0.5,0.4s0.2,0.4,0.5,0.4"/>
		<path id="XMLID_44_" class="st14" d="M498.2,52.1c-0.3,0-0.5,0.2-0.5,0.4s0.2,0.4,0.5,0.4"/>
		<path id="XMLID_43_" class="st14" d="M497.4,52.8c-0.3,0-0.5,0.2-0.5,0.4s0.2,0.4,0.5,0.4"/>
		<path id="XMLID_42_" class="st14" d="M497.6,54.8c-0.3,0-0.5,0.2-0.5,0.4s0.2,0.4,0.5,0.4"/>
		<path id="XMLID_41_" class="st14" d="M497.4,55.9c-0.3,0-0.5,0.2-0.5,0.4s0.2,0.4,0.5,0.4"/>
		<path id="XMLID_40_" class="st14" d="M497.1,53.9c-0.3,0-0.5,0.2-0.5,0.4s0.2,0.4,0.5,0.4"/>
		<path id="XMLID_39_" class="st14" d="M496.9,55c-0.3,0-0.5,0.2-0.5,0.4c0,0.2,0.2,0.4,0.5,0.4"/>
		<path id="XMLID_38_" class="st14" d="M496.7,52.9c-0.3,0-0.5,0.2-0.5,0.4s0.2,0.4,0.5,0.4"/>
	</g>
	<g id="XMLID_194_">
		<polygon id="XMLID_37_" class="st15" points="419.2,58.3 395.5,58.3 383.7,38.5 395.5,18.7 419.2,18.7 431,38.5 		"/>
		<path id="XMLID_36_" class="st16" d="M412.8,37.5c0,3-2.5,5.4-5.6,5.4c-2.3,0-4.2-1.3-5.1-3.2c-0.3-0.7-0.5-1.4-0.5-2.2
			c0-3,2.5-5.4,5.6-5.4C410.3,32.1,412.8,34.5,412.8,37.5z"/>
		<polygon id="XMLID_35_" class="st17" points="415.6,19 419,18.9 426.7,25.2 429,29.3 430.8,38.6 428.9,41.7 		"/>
		<polygon id="XMLID_34_" class="st15" points="417.1,30.4 419.3,34 423.4,31.7 421.2,28 		"/>
		<path id="XMLID_33_" class="st18" d="M428.1,24.7l-4.3,2.2l-0.4,2.1l2,0.6l4.6-2.6C429.9,26.9,428.5,26.2,428.1,24.7z"/>
		
			<ellipse id="XMLID_32_" transform="matrix(1 1.395609e-003 -1.395609e-003 1 3.458150e-002 -0.6022)" class="st19" cx="431.5" cy="24.5" rx="3.6" ry="3.3"/>
		<polygon id="XMLID_31_" class="st17" points="398,18.4 394.6,18.3 386.9,24.6 384.6,28.7 382.8,37.9 384.6,41 		"/>
		<polygon id="XMLID_30_" class="st15" points="396.5,29.8 394.3,33.4 390.2,31.1 392.3,27.4 		"/>
		<path id="XMLID_29_" class="st18" d="M385.5,24.1l4.3,2.2l0.4,2.1l-2,0.6l-4.5-2.6C383.7,26.3,385.1,25.5,385.5,24.1z"/>
		
			<ellipse id="XMLID_28_" transform="matrix(-1 -1.395609e-003 1.395609e-003 -1 764.1818 48.1756)" class="st19" cx="382.1" cy="23.8" rx="3.6" ry="3.3"/>
		<polygon id="XMLID_27_" class="st20" points="420.1,55.9 418.6,58.8 409.5,62.1 404.8,61.9 396,58.8 394.2,55.7 		"/>
		<polygon id="XMLID_26_" class="st15" points="409.5,51.4 405.4,51.5 405.4,56.1 409.6,56.1 		"/>
		<path id="XMLID_25_" class="st21" d="M409.2,63.5l0.2-4.7l-1.6-1.4l-1.4,1.4l0.1,5.1C406.4,63.9,407.7,63.1,409.2,63.5z"/>
		<path id="XMLID_24_" class="st22" d="M406,69.5c-1.6-0.9-2.1-3-1.2-4.7c1-1.7,3-2.3,4.6-1.3c1.6,0.9,2.1,3,1.2,4.7
			S407.6,70.4,406,69.5z"/>
		<polygon id="XMLID_23_" class="st17" points="419.1,18.5 417.6,15.6 408.9,12.2 404.4,12.4 395.9,15.5 394.2,18.6 		"/>
		<polygon id="XMLID_22_" class="st15" points="408.9,22.9 405,22.9 405,18.2 409,18.2 		"/>
		<path id="XMLID_21_" class="st23" d="M408.6,10.8l0.2,4.7l-1.6,1.4l-1.4-1.4l0.1-5.1C406,10.4,407.2,11.2,408.6,10.8z"/>
		<path id="XMLID_20_" class="st24" d="M405.8,5.5c-1.7,1-2.3,3.2-1.4,4.8s3,2.2,4.7,1.2c1.7-1,2.3-3.2,1.4-4.8
			C409.5,5,407.4,4.5,405.8,5.5z"/>
		<polygon id="XMLID_19_" class="st25" points="385,41 383.7,43.1 385.4,49.6 387.4,52.2 393.3,56.1 396.2,55.9 		"/>
		<polygon id="XMLID_18_" class="st15" points="392.5,45.4 394.3,47.8 391.1,49.6 389.3,47.2 		"/>
		<path id="XMLID_17_" class="st26" d="M384.5,50.3l3.1-1.9l1.6,0.4l-0.3,1.4l-3.5,1.9C385.4,52,385.4,51,384.5,50.3z"/>
		<path id="XMLID_16_" class="st27" d="M381.6,54.3c1.4,0.6,3.1,0.1,3.9-1.1c0.7-1.2,0.2-2.7-1.2-3.3c-1.4-0.6-3.1-0.1-3.9,1.1
			C379.7,52.2,380.2,53.7,381.6,54.3z"/>
		<polygon id="XMLID_15_" class="st25" points="428.7,41.1 430,43.1 428.3,49.6 426.2,52.2 420.3,56.1 417.5,55.9 		"/>
		<polygon id="XMLID_14_" class="st15" points="421.2,45.5 419.4,47.8 422.5,49.6 424.3,47.2 		"/>
		<path id="XMLID_13_" class="st26" d="M429.2,50.3l-3.1-1.9l-1.6,0.4l0.3,1.4l3.5,1.9C428.3,52.1,428.3,51,429.2,50.3z"/>
		<path id="XMLID_12_" class="st28" d="M431.9,54.5c-1.3,0.6-2.9,0-3.7-1.2c-0.7-1.2-0.2-2.6,1.1-3.2c1.3-0.6,2.9,0,3.7,1.2
			S433.2,53.9,431.9,54.5z"/>
		<line id="XMLID_11_" class="st29" x1="391" y1="28.8" x2="402.1" y2="34.6"/>
		<line id="XMLID_10_" class="st29" x1="390" y1="48.4" x2="402.1" y2="40.6"/>
		<line id="XMLID_9_" class="st29" x1="422.7" y1="29.3" x2="412.3" y2="34.6"/>
		<line id="XMLID_8_" class="st29" x1="423.5" y1="48.6" x2="412.2" y2="40.6"/>
		<line id="XMLID_7_" class="st29" x1="407.4" y1="17.9" x2="407.3" y2="31.7"/>
		<line id="XMLID_6_" class="st29" x1="407.8" y1="56.4" x2="407.5" y2="43.3"/>
	</g>
	<rect id="XMLID_5_" x="226.6" y="158.9" class="st30" width="363.6" height="51.7"/>
	<rect id="XMLID_4_" x="226.6" y="210.6" class="st31" width="363.6" height="51.7"/>
	<rect id="XMLID_3_" x="226.1" y="262.4" class="st32" width="363.6" height="51.7"/>
	<rect id="XMLID_2_" x="227.1" y="310.6" class="st33" width="363.6" height="51.7"/>
	<rect id="XMLID_1_" x="226.3" y="362.3" class="st34" width="363.6" height="822.7"/>
</g>
</svg>
